<?xml version="1.0" encoding="UTF-8" ?>
<!DOCTYPE svg PUBLIC "-//W3C//DTD SVG 1.1//EN" "http://www.w3.org/Graphics/SVG/1.1/DTD/svg11.dtd">
<svg width="256pt" height="256pt" viewBox="0 0 256 256" version="1.1" xmlns="http://www.w3.org/2000/svg">
<path fill="#190d21" d=" M 0.00 0.00 L 256.00 0.00 L 256.00 256.00 L 0.00 256.00 L 0.00 0.00 Z" />
<path fill="#38b7b7" d=" M 48.49 49.46 C 100.88 49.31 153.28 49.58 205.68 49.32 C 206.12 57.19 205.78 65.10 205.86 72.98 C 196.66 73.69 187.22 73.31 177.94 72.99 C 142.80 73.01 107.66 73.03 72.51 72.98 C 73.39 75.96 72.56 79.03 72.87 82.00 C 73.06 105.68 72.82 129.41 72.90 153.00 C 72.74 163.00 73.27 173.15 72.52 183.00 C 71.54 174.75 72.27 166.33 72.04 158.00 C 72.16 129.97 71.88 101.91 72.15 73.89 C 70.55 73.12 68.71 73.58 67.00 73.46 C 60.91 73.61 54.81 73.26 48.73 73.63 C 49.26 109.03 48.82 144.55 48.97 180.00 C 48.71 188.83 49.41 197.74 48.66 206.56 L 48.53 206.81 C 47.54 197.93 48.43 188.86 48.09 180.00 C 48.15 147.69 48.11 115.29 48.11 83.00 C 48.02 80.66 47.82 78.24 48.59 75.99 C 48.59 67.15 48.82 58.29 48.49 49.46 Z" />
<path fill="#ffffff" d=" M 48.73 73.63 C 54.81 73.26 60.91 73.61 67.00 73.46 C 68.71 73.58 70.55 73.12 72.15 73.89 C 71.88 101.91 72.16 129.97 72.04 158.00 C 72.27 166.33 71.54 174.75 72.52 183.00 C 108.95 182.82 145.38 183.10 181.80 182.86 C 181.70 146.49 181.72 110.11 181.79 73.73 C 189.74 73.10 197.97 73.46 205.99 73.54 C 205.66 117.92 206.11 162.33 205.77 206.70 C 153.40 206.53 101.02 206.81 48.66 206.56 C 49.41 197.74 48.71 188.83 48.97 180.00 C 48.82 144.55 49.26 109.03 48.73 73.63 Z" />
</svg>

